<svg width="48" height="48" viewBox="0 0 48 48" fill="none" xmlns="http://www.w3.org/2000/svg">
    <title>GuandataBI Custom App Favicon</title>
    <desc>An app-module mark for custom applications embedded in GuandataBI.</desc>
    <rect width="48" height="48" rx="12" fill="url(#paint0_linear_256_61)" />
    <path
        d="M32.6202 23.3983C32.8389 23.2704 33.087 23.2031 33.3395 23.2031C33.592 23.2031 33.8401 23.2704 34.0588 23.3983L37.6807 25.5158C37.8994 25.6437 38.081 25.8277 38.2072 26.0492C38.3335 26.2707 38.4 26.5219 38.4 26.7777V31.0139C38.4 31.2697 38.3335 31.521 38.2072 31.7425C38.081 31.964 37.8994 32.1479 37.6807 32.2758L34.0588 34.3939C33.8401 34.5218 33.592 34.5891 33.3395 34.5891C33.087 34.5891 32.8389 34.5218 32.6202 34.3939L28.9984 32.2758C28.7797 32.1479 28.5981 31.964 28.4718 31.7425C28.3455 31.521 28.2791 31.2697 28.2791 31.0139V26.7783C28.279 26.5224 28.3454 26.271 28.4717 26.0494C28.5979 25.8278 28.7796 25.6438 28.9984 25.5158L32.6202 23.3983ZM33.3395 27.1478C32.8817 27.1478 32.4426 27.3321 32.1188 27.66C31.7951 27.9879 31.6132 28.4327 31.6132 28.8964C31.6132 29.3602 31.7951 29.8049 32.1188 30.1328C32.4426 30.4607 32.8817 30.645 33.3395 30.645C33.7974 30.645 34.2365 30.4607 34.5602 30.1328C34.884 29.8049 35.0658 29.3602 35.0658 28.8964C35.0658 28.4327 34.884 27.9879 34.5602 27.66C34.2365 27.3321 33.7974 27.1478 33.3395 27.1478Z"
        fill="url(#paint1_linear_256_61)"
    />
    <path
        d="M21.4753 10.8364C22.568 10.2613 23.8721 10.2545 24.9714 10.8168L34.7517 15.8198C36.0202 16.4687 36.8181 17.7738 36.8181 19.1987V22.9106L35.2439 22.0024C35.0454 21.8878 34.8286 21.8105 34.6042 21.7729V19.4506C34.6041 18.5368 33.665 17.9246 32.8289 18.2934L26.114 21.2553C24.7385 21.8623 23.8513 23.2244 23.8513 24.728V33.642C23.8513 34.6204 24.9141 35.2288 25.7576 34.7328L28.1257 33.3393C28.2435 33.4572 28.3766 33.5599 28.5222 33.644L30.7371 34.9223L26.116 37.5805C24.9144 38.2713 23.4312 38.2523 22.2478 37.5307L13.0193 31.9028C11.8894 31.2137 11.2 29.986 11.2 28.6625V18.5366C11.2 17.1274 11.9803 15.8335 13.2273 15.1772L21.4753 10.8364ZM14.0261 20.8481C13.6051 20.6251 13.0977 20.9303 13.0974 21.4067V22.5414C13.0976 22.9965 13.3424 23.4163 13.738 23.641L20.3757 27.4106C20.7974 27.65 21.3208 27.3456 21.321 26.8608V25.4721C21.321 25.0035 21.0614 24.5732 20.6472 24.3539L14.0261 20.8481Z"
        fill="url(#paint2_linear_256_61)"
    />
    <defs>
        <linearGradient id="paint0_linear_256_61" x1="24" y1="0" x2="24" y2="48" gradientUnits="userSpaceOnUse">
            <stop stop-color="#0D9488" />
            <stop offset="1" stop-color="#0D9488" stop-opacity="0.6" />
        </linearGradient>
        <linearGradient
            id="paint1_linear_256_61"
            x1="36.5023"
            y1="28.7441"
            x2="28.284"
            y2="29.0359"
            gradientUnits="userSpaceOnUse"
        >
            <stop stop-color="white" />
            <stop offset="1" stop-color="white" stop-opacity="0.5" />
        </linearGradient>
        <linearGradient
            id="paint2_linear_256_61"
            x1="27.0136"
            y1="12.2977"
            x2="15.6274"
            y2="34.7534"
            gradientUnits="userSpaceOnUse"
        >
            <stop stop-color="white" />
            <stop offset="0.62434" stop-color="white" />
            <stop offset="1" stop-color="white" stop-opacity="0.4" />
        </linearGradient>
    </defs>
</svg>
